<svg width="39" height="44" viewBox="0 0 39 44" fill="none" xmlns="http://www.w3.org/2000/svg">
<path id="Vector" d="M37.0177 18.1326L20.634 1.3876C20.4364 1.18843 20.2014 1.03034 19.9425 0.92246C19.6835 0.814577 19.4058 0.759033 19.1252 0.759033C18.8447 0.759033 18.567 0.814577 18.308 0.92246C18.0491 1.03034 17.814 1.18843 17.6165 1.3876L1.23274 18.1539C0.836299 18.5535 0.523196 19.0279 0.311617 19.5496C0.100038 20.0712 -0.00580078 20.6297 0.000245149 21.1926V39.0001C-0.00140135 40.0879 0.414138 41.135 1.16129 41.9256C1.90844 42.7162 2.93032 43.1903 4.01649 43.2501H34.234C35.3202 43.1903 36.342 42.7162 37.0892 41.9256C37.8363 41.135 38.2519 40.0879 38.2502 39.0001V21.1926C38.2519 20.0513 37.81 18.9541 37.0177 18.1326ZM14.8752 39.0001V26.2501H23.3752V39.0001H14.8752ZM34.0002 39.0001H27.6252V24.1251C27.6252 23.5615 27.4014 23.021 27.0028 22.6225C26.6043 22.224 26.0638 22.0001 25.5002 22.0001H12.7502C12.1867 22.0001 11.6462 22.224 11.2476 22.6225C10.8491 23.021 10.6252 23.5615 10.6252 24.1251V39.0001H4.25024V21.1076L19.1252 5.91386L34.0002 21.1926V39.0001Z" fill="#49BD8F"/>
</svg>
